# xmcd
#
# Track frame offsets: 
#        150
#        14556
#        29030
#        43031
#        57304
#        69746
#        81814
#        95686
#        110538
#        124711
#        137685
#        151808
#        166056
#        178443
#        192998
#        205383
#        220690
#        234205
#        248104
#        263453
#        277115
#        291153
#        305477
#        318862
#        332775
#
# Disc length: 4611 seconds
#
# Revision: 0
# Processed by: cddbd v1.5.1PL2 Copyright (c) Steve Scherf et al.
# Submitted via: ExactAudioCopy v0.95b3
#
DISCID=73120119
DTITLE=Various Artist - 20th Century Blues #1
DYEAR=2000
DGENRE=Blues
TTITLE0=Alberta Hunter - Down Hearted Blues
TTITLE1=Ida Cox - Worried Mama Blues
TTITLE2=Bessie Smith - Weeping Willow Blues
TTITLE3=Ma Rainey - See See Rider Blues
TTITLE4=Papa Charlie Jackson - Maxwell Street Blues
TTITLE5=Lonnie Johnson - Mr. Johnson's Blues
TTITLE6=Victoria Spivey - Dirty Woman Blues
TTITLE7=Freddie Spruell - Milk Cow Blues
TTITLE8=Blind Blake - West Coast Blues
TTITLE9=Sippie Wallace - I'm A Mighty Tight Woman
TTITLE10=Peg Leg Howell - Day Blues
TTITLE11=Barbecue Bob - Barbecue Blues
TTITLE12=Furry Lewis - Rock Island Blues
TTITLE13=Jim Jackson - Jim J's Kansas City Blues
TTITLE14=Blind Lemon Jefferson - One Dime Blues
TTITLE15=Tommy Johnson - Cool Drink of Water Blues
TTITLE16=Texas Alexander - No More Woman Blues
TTITLE17=Pink Anderson - CCGO Blues
TTITLE18=Henry Thomas - Bulldoze Blues
TTITLE19=Scrapper Blackwell - Kokomo Blues
TTITLE20=Cow Cow Davenport - Cow Cow Blues
TTITLE21=Gus Cannon - Feather Bed
TTITLE22=Ramblin' Thomas - Hard Dallas Blues #4
TTITLE23=Leroy Carr - Prison Bound Blues
TTITLE24=Mississippi John Hurt - Ain't No Tellin'
EXTD=
EXTT0=
EXTT1=
EXTT2=
EXTT3=
EXTT4=
EXTT5=
EXTT6=
EXTT7=
EXTT8=
EXTT9=
EXTT10=
EXTT11=
EXTT12=
EXTT13=
EXTT14=
EXTT15=
EXTT16=
EXTT17=
EXTT18=
EXTT19=
EXTT20=
EXTT21=
EXTT22=
EXTT23=
EXTT24=
PLAYORDER=
